<svg width="231" height="261" viewBox="0 0 231 261" fill="none" xmlns="http://www.w3.org/2000/svg">
<path d="M115.407 143.92C155.149 143.92 187.367 111.702 187.367 71.96C187.367 32.2176 155.149 0 115.407 0C75.6644 0 43.4468 32.2176 43.4468 71.96C43.4468 111.702 75.6644 143.92 115.407 143.92Z" fill="#011627"/>
<path d="M222.187 197.4C232.957 205.04 233.987 220.12 224.367 229.07C208.957 243.41 177.517 260.59 115.397 260.59C53.2767 260.59 22.2867 243.38 6.69674 229.03C-3.01326 220.09 -2.03326 204.93 8.78674 197.27C29.9667 182.28 69.7767 159.41 115.397 159.41C161.017 159.41 201.047 182.41 222.187 197.4Z" fill="#011627"/>
</svg>
