<svg width="92" height="83" viewBox="0 0 92 83" fill="none" xmlns="http://www.w3.org/2000/svg">
<path d="M3.90602 82.2307H51.4288C51.5433 82.2307 51.6578 82.2222 51.7681 82.2137C51.785 82.2137 51.802 82.2095 51.8232 82.2052C51.9165 82.1925 52.0098 82.1798 52.1031 82.1586C52.1285 82.1544 52.1582 82.1459 52.1837 82.1374C52.2642 82.1162 52.3448 82.095 52.4254 82.0695C52.4593 82.0568 52.4932 82.0441 52.5271 82.0314C52.595 82.0059 52.6628 81.9805 52.7307 81.9508C52.7688 81.9338 52.8112 81.9127 52.8494 81.8957C52.9088 81.866 52.9681 81.8363 53.0233 81.8024C53.0657 81.777 53.1038 81.7557 53.1462 81.7261C53.2014 81.6921 53.2522 81.654 53.3031 81.6158C53.3413 81.5861 53.3795 81.5607 53.4176 81.531C53.477 81.4801 53.5364 81.4292 53.5957 81.3741C53.6212 81.3529 53.6466 81.3317 53.6678 81.3063C53.7484 81.2257 53.8247 81.1409 53.8968 81.0518C53.8968 81.0518 53.901 81.0434 53.9053 81.0434L91.2849 34.6188C91.7387 34.0548 91.9888 33.3509 91.9888 32.6258V3.87548C91.9888 3.72282 91.9761 3.5744 91.9549 3.42599C91.9507 3.3963 91.9464 3.36238 91.9422 3.3327C91.9168 3.18852 91.8828 3.04435 91.8404 2.90441C91.8404 2.89593 91.8362 2.88745 91.8319 2.88321C91.7895 2.74751 91.7344 2.6203 91.6708 2.49309C91.6581 2.47188 91.6496 2.44644 91.6369 2.42524C91.569 2.29803 91.4969 2.17505 91.4164 2.05632C91.4037 2.03936 91.3867 2.01816 91.374 2.00119C91.2977 1.89518 91.2171 1.79765 91.128 1.70436C91.1111 1.6874 91.0984 1.67044 91.0814 1.65348C90.9839 1.55171 90.8778 1.45842 90.7634 1.37361C90.7379 1.35664 90.7167 1.33544 90.6913 1.31848C90.4496 1.14038 90.1867 1.00045 89.9025 0.894434C89.8898 0.890193 89.8771 0.881713 89.8644 0.877472C89.8559 0.877472 89.8432 0.873232 89.8347 0.868991C89.6948 0.822346 89.5506 0.779942 89.4022 0.754499C89.381 0.754499 89.3598 0.750258 89.3386 0.746018C89.2113 0.724816 89.0841 0.712094 88.9569 0.707854C88.9272 0.707854 88.8933 0.707854 88.8636 0.703613C88.8467 0.703613 88.8255 0.703613 88.8085 0.703613H41.2857C40.3231 0.703613 39.4114 1.14038 38.8092 1.89094L1.4508 48.2773L1.4296 48.307C1.41263 48.3282 1.39567 48.3537 1.37871 48.3791C1.33631 48.4342 1.2939 48.4936 1.2515 48.553C1.22605 48.5869 1.20909 48.625 1.18789 48.659C1.15397 48.7099 1.12428 48.765 1.0946 48.8201C1.0734 48.8625 1.05219 48.9049 1.03099 48.9473C1.00555 48.9982 0.984347 49.0491 0.963145 49.1C0.941942 49.1466 0.929221 49.1975 0.912259 49.2442C0.895297 49.295 0.878336 49.3417 0.861374 49.3926C0.844412 49.4435 0.83169 49.4986 0.818969 49.5495C0.806248 49.5961 0.793526 49.647 0.785045 49.6936C0.772324 49.753 0.768084 49.8081 0.759603 49.8675C0.755362 49.9141 0.746881 49.9565 0.742641 50.0032C0.7384 50.071 0.73416 50.1346 0.73416 50.2025C0.73416 50.2364 0.729919 50.2703 0.729919 50.3043V79.0546C0.729919 80.8101 2.15471 82.2349 3.91026 82.2349L3.90602 82.2307ZM48.2485 75.87H7.08637V53.4804H48.2485V75.87ZM85.6282 31.5063L54.6092 70.0309V51.4237L85.6282 12.8949V31.5021V31.5063ZM42.808 7.05582H82.1637L49.9065 47.1197H10.5508L42.808 7.05582Z" fill="#011627"/>
</svg>
