<svg width="101" height="102" viewBox="0 0 101 102" fill="none" xmlns="http://www.w3.org/2000/svg">
<path d="M8.20018 101.396C9.19244 101.396 10.2059 101.209 11.1939 100.824C13.2802 100.009 14.8407 98.326 15.5489 96.3414L23.4404 95.752C24.1994 95.6969 24.9118 95.3661 25.4504 94.8276L75.2588 45.0191C77.1882 46.1895 79.1176 47.1733 81.0216 47.9535C81.9078 48.3182 82.8407 48.4963 83.7694 48.4963C84.9864 48.4963 86.2034 48.1868 87.3059 47.5761C89.265 46.4863 90.6093 44.5993 90.9867 42.3901C91.4955 39.4175 90.9103 36.1693 89.2566 32.7006C100.456 27.4382 100.858 19.2541 100.447 15.76C99.5439 8.18227 92.9839 1.66045 85.5038 0.914127C82.0732 0.57065 74.0503 1.14735 68.9956 12.5287C64.0089 10.2728 60.3027 10.7308 57.9238 11.651C56.0962 12.3591 54.6629 13.75 53.8869 15.5692C53.1151 17.3798 53.1109 19.4534 53.8657 21.2641C54.6035 23.0239 55.5407 24.8218 56.6517 26.624L6.94924 76.3265C6.41494 76.8608 6.08419 77.5732 6.02906 78.328L5.40147 86.3848C3.90459 86.9106 2.64518 87.886 1.8098 89.2259C-0.0984022 92.2876 0.0839378 95.9683 2.27201 98.6016C3.78586 100.421 5.93577 101.396 8.20018 101.396ZM11.5459 89.3744L12.2753 79.9945L60.3748 31.8949C60.3748 31.8949 60.3918 31.9161 60.4002 31.9246C60.7183 32.3232 61.0448 32.7133 61.3755 33.1035C61.4604 33.201 61.5452 33.2985 61.6257 33.396C61.8802 33.6886 62.1346 33.9812 62.3932 34.2738C62.4993 34.3926 62.6095 34.5155 62.7198 34.6343C62.9742 34.9141 63.2329 35.194 63.4958 35.4696C63.5933 35.5714 63.6908 35.6774 63.7884 35.7792C64.5092 36.5297 65.2513 37.2591 66.0104 37.9715C66.1079 38.0606 66.2054 38.1496 66.2987 38.2387C66.5871 38.5058 66.8797 38.7729 67.1765 39.0359C67.2867 39.1334 67.4012 39.2352 67.5115 39.3327C67.821 39.6041 68.1348 39.8712 68.4486 40.1384C68.5334 40.2062 68.614 40.2783 68.6988 40.3462C69.1017 40.6812 69.5087 41.0119 69.9201 41.3342C69.9285 41.3384 69.9328 41.3469 69.9413 41.3511L21.7824 89.51L12.5042 90.2055C12.042 90.2394 11.601 90.3751 11.2067 90.5914C11.3932 90.2267 11.512 89.8238 11.5459 89.3913V89.3744ZM7.20791 92.5844C7.29696 92.4402 7.62772 92.296 8.08144 92.296C8.11961 92.296 8.16201 92.296 8.20018 92.296C8.81928 92.3257 9.40447 92.1858 9.90908 91.9059C9.60801 92.4953 9.49776 93.1696 9.59529 93.8311C9.65465 94.2297 9.3239 94.7131 8.87441 94.8912C7.91183 95.2686 7.35633 94.764 7.16126 94.5265C6.91108 94.2254 6.58456 93.5724 7.20791 92.5759V92.5844Z" fill="#011627"/>
</svg>
