<svg width="252" height="265" viewBox="0 0 252 265" fill="none" xmlns="http://www.w3.org/2000/svg">
<path d="M193.68 159.64L168.5 146.24C169.96 141.85 170.76 137.16 170.76 132.28C170.76 126.29 169.56 120.58 167.41 115.37L191.6 100.21C195.11 98.0099 196.17 93.3799 193.97 89.8699C191.77 86.3599 187.14 85.2999 183.63 87.4999L159.43 102.67C152.86 95.3299 143.91 90.1799 133.79 88.4599V59.8599C133.79 55.7199 130.43 52.3599 126.29 52.3599C122.15 52.3599 118.79 55.7199 118.79 59.8599V88.4599C108.1 90.2799 98.7 95.9199 92.06 103.93L67.3301 89.6899C63.7401 87.6299 59.16 88.8599 57.09 92.4499C55.02 96.0399 56.26 100.62 59.85 102.69L84.56 116.92C82.79 121.71 81.82 126.89 81.82 132.29C81.82 137.34 82.6801 142.18 84.2301 146.71L59.18 160.38C55.54 162.36 54.2 166.92 56.19 170.56C57.55 173.06 60.12 174.47 62.78 174.47C63.99 174.47 65.2301 174.18 66.3701 173.55L91.4401 159.87C98.1201 168.29 107.77 174.24 118.79 176.12V204.72C118.79 208.86 122.15 212.22 126.29 212.22C130.43 212.22 133.79 208.86 133.79 204.72V176.12C144.98 174.21 154.76 168.11 161.44 159.49L186.64 172.89C187.76 173.49 188.97 173.77 190.16 173.77C192.84 173.77 195.44 172.32 196.79 169.79C198.74 166.13 197.35 161.59 193.69 159.65L193.68 159.64ZM126.32 161.75C126.32 161.75 126.29 161.75 126.28 161.75C126.27 161.75 126.25 161.75 126.24 161.75C110.01 161.73 96.81 148.52 96.81 132.28C96.81 116.04 110 102.84 126.23 102.81C126.25 102.81 126.26 102.81 126.28 102.81C126.3 102.81 126.31 102.81 126.33 102.81C142.56 102.84 155.75 116.05 155.75 132.28C155.75 148.51 142.55 161.73 126.32 161.75Z" fill="#FDFFFC"/>
<path d="M244.76 162.26C233.57 155.95 226.41 144.54 225.61 131.75C224.74 117.87 231.55 104.68 243.37 97.3199C248.73 93.9899 250.87 87.3599 248.46 81.5699C243.35 69.2599 236.4 57.7999 227.81 47.5199C223.79 42.7099 216.95 41.5399 211.53 44.7299C200.47 51.2499 187.01 51.7299 175.54 46.0099C163.09 39.8099 155.09 27.3199 154.64 13.4099C154.44 7.09991 149.78 1.92991 143.55 1.11991C131.72 -0.430091 119.34 -0.370091 107.55 1.29991C101.43 2.16991 96.8305 7.30991 96.6105 13.5199C96.1205 27.3799 88.1105 39.8199 75.7205 45.9999C64.4905 51.5799 51.2705 51.2399 40.3405 45.0799C34.9405 42.0299 28.1605 43.2799 24.2205 48.0399C15.6805 58.3699 8.78048 69.8799 3.73048 82.2299C1.42048 87.8699 3.47048 94.4099 8.60048 97.7599C19.9605 105.19 26.4905 118.2 25.6405 131.73C24.8605 144.19 17.9805 155.43 7.24048 161.81C1.98048 164.93 -0.32952 171.37 1.73048 177.11C6.32048 189.87 12.8505 201.82 21.1305 212.63C24.8805 217.53 31.6205 219.03 37.1305 216.19C49.2305 209.97 63.8005 210.75 75.1505 218.23C85.8105 225.25 92.1505 237.07 92.1105 249.85C92.0905 256.06 96.5105 261.36 102.6 262.46C110.35 263.86 118.29 264.57 126.21 264.57C133.68 264.57 141.18 263.94 148.49 262.7C154.68 261.65 159.14 256.32 159.09 250.02C159 237.19 165.35 225.31 176.06 218.25C187.67 210.6 202.48 209.95 214.73 216.54C220.28 219.53 227.08 218.1 230.91 213.15C239.23 202.39 245.81 190.49 250.47 177.77C252.63 171.88 250.22 165.35 244.73 162.26H244.76ZM220.21 202.48C203.44 194.19 183.54 195.38 167.84 205.73C153.4 215.25 144.64 231.02 144.15 248.22C131.97 250.09 119.32 250.02 107.13 248.03C106.57 230.91 97.8205 215.2 83.4505 205.73C68.0905 195.62 48.5305 194.26 31.9705 202.06C25.5105 193.36 20.3205 183.85 16.5105 173.76C30.6105 164.71 39.5905 149.49 40.6505 132.7C41.8005 114.41 33.2905 96.7799 18.3605 86.2599C22.5305 76.5099 28.0005 67.3699 34.6605 59.0599C49.6005 66.7999 67.3205 66.9799 82.4505 59.4599C99.2205 51.0999 110.24 34.5399 111.55 15.9299C120.82 14.7699 130.47 14.7199 139.78 15.7799C141.04 34.4499 152.06 51.0699 168.89 59.4499C184.36 67.1499 202.4 66.8099 217.53 58.5999C224.2 66.8499 229.71 75.9199 233.91 85.6099C218.37 96.0499 209.5 113.92 210.67 132.69C211.75 149.95 221.09 165.39 235.79 174.37C231.94 184.4 226.71 193.84 220.25 202.48H220.21Z" fill="#FDFFFC"/>
</svg>
