<svg width="214" height="205" viewBox="0 0 214 205" fill="none" xmlns="http://www.w3.org/2000/svg">
<path d="M187.12 0H26.39C11.84 0 0 11.84 0 26.39V177.9C0 192.45 11.84 204.29 26.39 204.29H187.13C201.68 204.29 213.52 192.45 213.52 177.9V26.39C213.52 11.84 201.68 0 187.13 0H187.12ZM26.39 15H187.13C193.41 15 198.52 20.11 198.52 26.39V99.92L179.15 82.42C173.27 77.11 164.39 76.68 158.04 81.4L125.27 105.71C124.57 106.23 123.57 106.12 123 105.46L77.06 52.33C73.86 48.63 69.24 46.56 64.32 46.56C59.43 46.6 54.82 48.77 51.67 52.52L15 96.19V26.39C15 20.11 20.11 15 26.39 15Z" fill="#FDFFFC"/>
</svg>
