<svg width="271" height="248" viewBox="0 0 271 248" fill="none" xmlns="http://www.w3.org/2000/svg">
<path d="M269.16 22.49C265.38 11.43 255.52 2.81999 244.04 0.56999C233.2 -1.56001 222.51 2.33999 214.71 11.28L105.23 136.71C103.92 138.21 103.26 140.17 103.4 142.15L105.72 176.33C105.99 180.29 109.28 183.32 113.2 183.32C113.37 183.32 113.54 183.32 113.72 183.3L147.9 180.98C149.88 180.85 151.73 179.93 153.04 178.43L262.52 53C270.32 44.07 272.74 32.95 269.16 22.49ZM241.15 15.29C247.36 16.51 252.92 21.36 254.97 27.35C256.26 31.12 256.65 36.91 251.22 43.14L249.81 44.76L224.61 22.77L226.02 21.15C231.46 14.92 237.25 14.53 241.16 15.3L241.15 15.29ZM118.58 144.23C124.64 143.1 130.82 144.71 135.74 148.86C140.95 153.25 143.81 159.61 143.76 166.22L120.18 167.82L118.58 144.22V144.23Z" fill="#FDFFFC"/>
<path d="M91.87 205.28C50.96 205.28 29.5 201.51 20.02 198.55C29.5 195.59 50.96 191.82 91.87 191.82C96.01 191.82 99.37 188.46 99.37 184.32C99.37 180.18 96.01 176.82 91.87 176.82C65.34 176.82 42.98 178.4 27.19 181.4C14.53 183.8 0 187.92 0 198.55C0 209.18 14.53 213.3 27.19 215.7C42.98 218.7 65.34 220.28 91.87 220.28C120.74 220.28 133.35 224.26 138.29 226.62C133.35 228.98 120.74 232.96 91.87 232.96C87.73 232.96 84.37 236.32 84.37 240.46C84.37 244.6 87.73 247.96 91.87 247.96C147.33 247.96 155.62 234.59 155.62 226.62C155.62 218.65 147.34 205.28 91.87 205.28Z" fill="#FDFFFC"/>
</svg>
