<svg width="210" height="158" viewBox="0 0 210 158" fill="none" xmlns="http://www.w3.org/2000/svg">
<path d="M200.17 18H9C4.03 18 0 13.97 0 9C0 4.03 4.03 0 9 0H200.17C205.14 0 209.17 4.03 209.17 9C209.17 13.97 205.14 18 200.17 18Z" fill="#FDFFFC"/>
<path d="M200.17 87.8199H9C4.03 87.8199 0 83.7899 0 78.8199C0 73.8499 4.03 69.8199 9 69.8199H200.17C205.14 69.8199 209.17 73.8499 209.17 78.8199C209.17 83.7899 205.14 87.8199 200.17 87.8199Z" fill="#FDFFFC"/>
<path d="M200.17 157.63H9C4.03 157.63 0 153.6 0 148.63C0 143.66 4.03 139.63 9 139.63H200.17C205.14 139.63 209.17 143.66 209.17 148.63C209.17 153.6 205.14 157.63 200.17 157.63Z" fill="#FDFFFC"/>
</svg>
