<svg width="97" height="95" viewBox="0 0 97 95" fill="none" xmlns="http://www.w3.org/2000/svg">
<path d="M22.2797 94.5624C22.2797 94.5624 22.3051 94.5624 22.3178 94.5624C23.149 94.5624 23.9462 94.2359 24.5398 93.6592L24.7391 93.4642C24.9172 93.3497 25.0826 93.2182 25.2395 93.0656L86.0307 33.5974L87.8499 31.8206L90.8945 28.8438C95.3597 24.4846 97.0983 18.7642 95.665 13.1583C94.1385 7.18778 89.3213 2.25189 83.3847 0.585388C77.8127 -0.979341 72.0542 0.627793 67.5847 4.98699L64.574 7.92986C64.574 7.92986 64.5486 7.95107 64.5401 7.96379L62.3011 10.1519L1.23426 69.7982C0.632115 70.3876 0.284397 71.1933 0.275916 72.0371L0.0554122 91.1192C0.0342099 92.8747 1.44204 94.3165 3.19759 94.3377L22.2797 94.5624ZM66.7112 14.7358L81.1288 29.4926L26.6219 82.7316C25.9434 79.0169 24.1412 75.5228 21.334 72.7495C18.7686 70.2137 15.6773 68.5684 12.3739 67.89L66.6391 14.8079L66.7112 14.7358ZM16.8604 77.2699C19.782 80.1576 21.0626 84.2157 20.3799 88.1763L12.0686 88.0788C11.1527 85.4667 9.10031 83.3676 6.51363 82.3881L6.61116 74.1192C10.3343 73.3941 14.0786 74.5178 16.8604 77.2656V77.2699ZM81.663 6.70861C85.3904 7.756 88.5411 10.9788 89.4994 14.7316C90.1143 17.1359 90.0804 20.7445 86.4463 24.2938L85.6745 25.0486L71.257 10.2918L72.0287 9.537C75.6628 5.98349 79.2757 6.03862 81.663 6.70861Z" fill="#011627"/>
</svg>
