<svg width="116" height="80" viewBox="0 0 116 80" fill="none" xmlns="http://www.w3.org/2000/svg">
<path d="M113.935 36.2284L68.4139 0.718835C67.4598 -0.027486 66.1623 -0.163181 65.0725 0.362636C63.9827 0.888453 63.2872 1.99097 63.2788 3.20374L63.16 19.6864C46.0879 17.1803 27.6759 22.553 15.3064 33.8792C7.07994 41.4103 -2.13033 54.9289 0.681091 76.5298C0.85495 77.874 1.86418 78.9596 3.19144 79.2352C3.40771 79.2776 3.62397 79.303 3.83599 79.303C4.93851 79.303 5.98591 78.7263 6.56685 77.751C11.9056 68.7909 20.8233 61.5864 31.0301 57.9778C38.5187 55.3317 50.057 53.3811 63.2788 58.5672V75.5587C63.2788 76.7842 63.9827 77.8994 65.0894 78.4295C66.1962 78.9596 67.5065 78.8027 68.4606 78.0309L113.982 41.211C114.737 40.6004 115.169 39.6802 115.161 38.7091C115.152 37.738 114.703 36.8263 113.935 36.2284Z" fill="#011627"/>
</svg>
