<svg width="223" height="226" viewBox="0 0 223 226" fill="none" xmlns="http://www.w3.org/2000/svg">
<path d="M219.35 209.02L150.72 140.14C163.62 124.8 170.66 105.61 170.66 85.34C170.66 38.28 132.38 0 85.33 0C38.28 0 0 38.28 0 85.33C0 132.38 38.28 170.66 85.33 170.66C105.5 170.66 124.6 163.7 139.9 150.92C155.96 168.38 205.64 222.46 205.77 222.54C209.5 226.29 215.57 226.3 219.32 222.57C223.07 218.84 223.08 212.77 219.35 209.02ZM15 85.33C15 46.55 46.55 15 85.33 15C124.11 15 155.66 46.55 155.66 85.33C155.66 104.12 148.34 121.78 135.06 135.06C121.78 148.34 104.11 155.66 85.33 155.66C46.55 155.66 15 124.11 15 85.33Z" fill="#011627"/>
</svg>
