<svg width="115" height="80" viewBox="0 0 115 80" fill="none" xmlns="http://www.w3.org/2000/svg">
<path d="M99.8545 33.8792C87.4893 22.5487 69.0772 17.1761 52.0009 19.6864L51.8821 3.20374C51.8737 1.99097 51.1782 0.892694 50.0884 0.362636C48.9986 -0.163181 47.701 -0.027486 46.7469 0.718835L1.22562 36.2284C0.458092 36.8263 0.00860334 37.738 0.000122427 38.7091C-0.00835849 39.6802 0.424168 40.6004 1.17897 41.211L46.7003 78.0309C47.6544 78.8027 48.9647 78.9553 50.0715 78.4295C51.1782 77.8994 51.8821 76.7842 51.8821 75.5587V58.5672C65.1039 53.3811 76.6422 55.3317 84.1308 57.9778C94.3376 61.5821 103.255 68.7909 108.594 77.751C109.175 78.7263 110.222 79.303 111.325 79.303C111.537 79.303 111.753 79.2818 111.969 79.2352C113.297 78.9596 114.302 77.874 114.48 76.5298C117.291 54.9246 108.077 41.4103 99.8545 33.8792ZM86.2511 51.9775C73.6315 47.5208 59.8415 48.072 47.4254 53.5338C46.272 54.0426 45.5257 55.1833 45.5257 56.447V68.8969L8.29446 38.7812L45.5681 9.70437L45.6699 23.5198C45.6783 24.4781 46.1151 25.3856 46.8657 25.9835C47.6162 26.5814 48.5958 26.8104 49.5329 26.6026C65.4262 23.1 83.9188 27.9087 95.5589 38.5734C101.512 44.0266 108.06 53.1352 108.594 67.0396C102.653 60.327 94.8507 55.0222 86.2511 51.9818V51.9775Z" fill="#011627"/>
</svg>
